/* XPM */
static char *_ec2a0d2c8cd4f8380b432e076f8e7b43KmlCoK6yi6ikLck[] = {
/* columns rows colors chars-per-pixel */
"64 64 235 2 ",
"   c #370C0A",
".  c #3D0E0D",
"X  c #3C130E",
"o  c #3D1411",
"O  c #3D1A14",
"+  c #392718",
"@  c #3F3627",
"#  c #420E0E",
"$  c #43100F",
"%  c #4A120F",
"&  c #430F11",
"*  c #441312",
"=  c #4A1413",
"-  c #421A15",
";  c #4A1916",
":  c #4F1718",
">  c #441D1A",
",  c #4B1D1A",
"<  c #531413",
"1  c #5C1817",
"2  c #551A1A",
"3  c #5C1B1B",
"4  c #44221B",
"5  c #46251A",
"6  c #4C211C",
"7  c #58221F",
"8  c #5E1F20",
"9  c #6B1F21",
"0  c #4B2522",
"q  c #482925",
"w  c #4B2A24",
"e  c #592927",
"r  c #493527",
"t  c #53342B",
"y  c #5A342D",
"u  c #512F30",
"i  c #593431",
"p  c #553D33",
"a  c #5B3C33",
"s  c #642323",
"d  c #6B2524",
"f  c #6C2929",
"g  c #63342F",
"h  c #642F31",
"j  c #643431",
"k  c #613B35",
"l  c #643E3B",
"z  c #6B3C39",
"x  c #723D3B",
"c  c #544434",
"v  c #54443A",
"b  c #594638",
"n  c #5C4C3D",
"m  c #63443D",
"M  c #69433D",
"N  c #66493B",
"B  c #634B3D",
"V  c #694C3F",
"C  c #141B6B",
"Z  c #5A4C43",
"A  c #5D5244",
"S  c #614C41",
"D  c #6A4B44",
"F  c #724644",
"G  c #744C47",
"H  c #744E4B",
"J  c #635344",
"K  c #6A5446",
"L  c #6A5A45",
"P  c #66574A",
"I  c #6C554A",
"U  c #665B4B",
"Y  c #6B5B4D",
"T  c #73534B",
"R  c #79534B",
"E  c #725D4D",
"W  c #7B5A4F",
"Q  c #655C52",
"!  c #6E5E51",
"~  c #7A5452",
"^  c #725C51",
"/  c #7A5C55",
"(  c #73624E",
")  c #78654D",
"_  c #6C6253",
"`  c #6D635B",
"'  c #6F695B",
"]  c #736354",
"[  c #796354",
"{  c #796956",
"}  c #74665A",
"|  c #7A655B",
" . c #756A5B",
".. c #7B6C5D",
"X. c #746D61",
"o. c #7C6D62",
"O. c #7D7264",
"+. c #797469",
"@. c #835553",
"#. c #836658",
"$. c #8B645D",
"%. c #83725E",
"&. c #88725F",
"*. c #836C62",
"=. c #896866",
"-. c #8E6C64",
";. c #926D64",
":. c #986B6C",
">. c #837364",
",. c #8B7464",
"<. c #8A7966",
"1. c #84766A",
"2. c #8A756A",
"3. c #867A6B",
"4. c #8B7B6C",
"5. c #907964",
"6. c #94726C",
"7. c #9A746B",
"8. c #937D6D",
"9. c #877A72",
"0. c #8C7D71",
"q. c #937D72",
"w. c #9B7C73",
"e. c #987B76",
"r. c #A17B6E",
"t. c #A17D76",
"y. c #8E816F",
"u. c #94846F",
"i. c #8D8273",
"p. c #8A857C",
"a. c #938374",
"s. c #9A8575",
"d. c #948977",
"f. c #958579",
"g. c #9A8679",
"h. c #958A7C",
"j. c #9B8B7C",
"k. c #99937F",
"l. c #A7877B",
"z. c #A3847C",
"x. c #A28C7C",
"c. c #AB917F",
"v. c #968B81",
"b. c #9C8D82",
"n. c #998B89",
"m. c #9D9284",
"M. c #9C9588",
"N. c #9F9690",
"B. c #A38C82",
"V. c #AB8C84",
"C. c #A98D89",
"Z. c #B18E86",
"A. c #A39484",
"S. c #A89885",
"D. c #A4958A",
"F. c #AB958B",
"G. c #A59A8C",
"H. c #AB9B8C",
"J. c #B4958D",
"K. c #B19D8B",
"L. c #A39A92",
"P. c #AD9D91",
"I. c #B29B92",
"U. c #BB9C95",
"Y. c #B99C96",
"T. c #AEA18F",
"R. c #B5A18E",
"E. c #ADA293",
"W. c #A9A597",
"Q. c #AEA49A",
"!. c #B3A394",
"~. c #BBA596",
"^. c #B3A69A",
"/. c #BBA49B",
"(. c #B5AA9C",
"). c #BBAB9C",
"_. c #B7B09E",
"`. c #BDB09D",
"'. c #B5ABA1",
"]. c #BBADA2",
"[. c #BCB2A4",
"{. c #BCB4A9",
"}. c #BFBBAD",
"|. c #C49C90",
" X c #C5A399",
".X c #C4A49D",
"XX c #C2AB9E",
"oX c #C4B19E",
"OX c #C3ADA3",
"+X c #CAAAA4",
"@X c #D1A8A8",
"#X c #C3B4A4",
"$X c #CBB2A4",
"%X c #C3B6AA",
"&X c #CAB5AC",
"*X c #C4BAAC",
"=X c #CABCAD",
"-X c #D7B8AD",
";X c #C5BDB2",
":X c #CBBDB2",
">X c #CABCB8",
",X c #D3BCB3",
"<X c #D9B8B1",
"1X c #C6C0AF",
"2X c #CCC1AE",
"3X c #C5C2B6",
"4X c #CCC3B5",
"5X c #CDC4B9",
"6X c #CCCABA",
"7X c #D3C3B5",
"8X c #D2C8B7",
"9X c #D4C5BA",
"0X c #DEC2BB",
"qX c #D3CABC",
"wX c #DACBBD",
"eX c #D7D1BF",
"rX c #E5C4BB",
"tX c #E0CEBE",
"yX c #CFC9C0",
"uX c #D4CDC2",
"iX c #DACDC3",
"pX c #DDCDCA",
"aX c #D6D0C3",
"sX c #DBD2C5",
"dX c #DDD4CA",
"fX c #DED8CE",
"gX c #E5CCC2",
"hX c #E2CAC5",
"jX c #EBCCC3",
"kX c #E8D2C5",
"lX c #E2D4CB",
"zX c #EBD2CA",
"xX c #E0D9CC",
"cX c #E1DAD1",
"vX c #F0DAD4",
/* pixels */
"C C C C C C C C C C C C C C iX8XiXqXaXuXuXiX8XdXsXdXuXdXsXdXuXsXsXaXuXuXuXqXqXdXsXaXsXsXsXdX4X8XuXuXC C C C C C C C C C C C C C ",
"C C C C C C C C C C C C C C ,XvXzXkX,Xx.6.-XjXgXzXV.6.z.-XjXkX0XXXz.w.Y.rXkXjXjXY.w.w.V.-XgXzXhXkXlXC C C C C C C C C C C C C C ",
"C C C C C C C C C C C C C C o * ; ; ; 6 0 0 w > 0 6 4 > - > - , > 4 4 O > O O O > O 4 - O 5 o * X e C C C C C C C C C C C C C C ",
"C C C C C C C C C C C C C C 6 n ] 2.E <.] [ ] B { Y Y Y J Y Y B { U J U J Y Y c Y A J n P J c L F.7 C C C C C C C C C C C C C C ",
"C C C C C C C C C C C C C C o #XP.~.).( ..E.%.b 7X2XN S.].3.^.{ p [.#X^ #XP.g.:Xm.) ).%XE OX!.(.K s C C C C C C C C C C C C C C ",
"C C C C C C C C C C C C C C 5 I H.wXa.>.m.Y %XsX,.A...u.>.Y ] 8.4X].~.S.B.Y `.] 0.E a.H.4.o.>.%X^ s C C C C C C C C C C C C C C ",
"C C C C C C C C C C C C C C M ) H.*X).:XsX%X).XX] 8.<.a.G.] <.Y *XS.!.*X..J a.U P.J 1.A.^.].] E | 1 C C C C C C C C C C C C C C ",
"C C C C C C C C C C C C C C ;.J OXA.H.).+ >.c qXG.Y A.H.!.P.! v.j.v R.c S >.5X1XP.>.j.y.h.S.U A /.d C C C C C C C C C C C C C C ",
"C C C C C C C C C C C C C C 7.3...>.*X4.*X8XiX*X3X*XG.#X;X5X(.[.E.^.(.P.^.P.D.Q.d.U {.b.>.7X:X+ *.s C C C C C C C C C C C C C C ",
"C C C C C C C C C C C C C C @.+.7Xa.[.A.aXS.S.q.<.' g.<.O.i.4.<.4.>.Y ] o.! <.} | O.v.E.P.A. .qX[ d C C C C C C C C C C C C C C ",
"C C C C C C C C C C C C C C M iX%XF.f.v sX] ).uXj.Q.:X7XaXm.P.2.3.>.^.>.D.`.<.aX3.sXD.P.p P.D.=X] d C C C C C C C C C C C C C C ",
"C C C C C C C C C C C C C C G {.).wXi.7Xm.3.v.:X).<. .[.iXH.>.S.=X7X<.5X*Xa...] :XsX7X!.O.=X0.pXI d C C C C C C C C C C C C C C ",
"C C C C C C C C C C C C C C W ;X#XwXm.b.M.' :X*X/ s.9X5X(.E.4.X.).j.+.W.sX&.E.*.h.wXO.^.X.o.b.uXF.f C C C C C C C C C C C C C C ",
"C C C C C C C C C C C C C C k { wXv.h...V O.lX(.;Xq.Y P.{.4.sXdX^.=X4.sX=X4.(._ M.[.a.!.D.#XE.^.*.f C C C C C C C C C C C C C C ",
"C C C C C C C C C C C C C C $.;X7X4Xf.} 4.>.O.).qXY f.;XiXG.] sXK #Xx.sX3X4XE.fXdX .hX^.n P.J b.w.d C C C C C C C C C C C C C C ",
"C C C C C C C C C C C C C C $.d.7Xj.#XJ j.>...sX%Xb.M.:X#X].).).B.4XD.W.' aXa.sXJ ).4.j.3.3.f.,./ d C C C C C C C C C C C C C C ",
"C C C C C C C C C C C C C C G iX%XA.2XH.dXO.sXZ 6XwXP.x.qX).: k = 4 7XA.iX%X).[.8XxXS ~.!.j.;Xi.^ f C C C C C C C C C C C C C C ",
"C C C C C C C C C C C C C C $.p.=X>.~.%.uXY a.(.iXdX4.2XI w.= aXG 6 t D.H.9X=XwXE.8X8X[...B >.a.m d C C C C C C C C C C C C C C ",
"C C C C C C C C C C C C C C $.5X=X*X] U k.o.E.E.a.qXS.4X% = = W z % < [ #X%Xy.h.D.A.9XH.U (.4.yX[ s C C C C C C C C C C C C C C ",
"C C C C C C C C C C C C C C R S.wXm.a.4.b.! /.;XK S.2 z < % < W $ = = 2 = t !.sXsXz.v A.sXeXh.lX^ f C C C C C C C C C C C C C C ",
"C C C C C C C C C C C C C C 7.%.).tX2.i.#.>.y <.=X).% , # $ ; z .X# * 6 * a ] #XY $X{ g.D.8XU b.p f C C C C C C C C C C C C C C ",
"C C C C C C C C C C C C C C ,. .:X,XH.=X#XY D _ g.j.* k ; M 4 K.N j.* m * 5 ..>.W F.wXh.A.*X>.^.T f C C C C C C C C C C C C C C ",
"C C C C C C C C C C C C C C Z.3.OXi.] c =X4.* F.x.w.% r.- >.8Xa qXm.- c.X , Y XX#.m 4.H.S.K.>.n m f C C C C C C C C C C C C C C ",
"C C C C C C C C C C C C C C l Q #X=Xa.A.dX| * 4X^.Z.= j % d.uXH.*X^.w , * * f.D.7.a h.f.Y S.5X*X/ f C C C C C C C C C C C C C C ",
"C C C C C C C C C C C C C C l *Xf...4.L iX} 4 D.j.jX* 7.= V.lXiX] !.= 7.; X f.`.0 m 0.h.0...S.*Xp s C C C C C C C C C C C C C C ",
"C C C C C C C C C C C C C C R >.H.t ] !.E <.X B =X* , | D o u.K.%X-.> J ^ ; 4 wX* $XiXH.I a.{ qXF.s C C C C C C C C C C C C C C ",
"C C C C C C C C C C C C C C ;.7X).G.Y Y @ S.* oXY O G.{.E.I.t %XS.4 [.L.(.&Xx.=X/ 7Xh.g.>.).M.uXq.s C C C C C C C C C C C C C C ",
"C C C C C C C C C C C C C C #.%.P.M.o.).J { - E.).W ,.5XE.<Xa R.).; 4.%XA.6 *.q.D /.[ ).U %X^ Y I.s C C C C C C C C C C C C C C ",
"C C C C C C C C C C C C C C 7.D.*X{.S.A.*Xd.o f.*X* = x.#.% = K.= = =  XH * /.Q.- B ].m.*X:XO.M.E s C C C C C C C C C C C C C C ",
"C C C C C C C C C C C C C C ;.qX7XiX*.#XfX! * 5 5X&X* XX- # * # * * * OX* & w :XP.S y.i.r ^.] %.A.s C C C C C C C C C C C C C C ",
"C C C C C C C C C C C C C C R sX(.w S.#XsX{ * >X*X>X* 7.* * = * = * * / * * 4XW.n.z.b S.0.<.| wX4.s C C C C C C C C C C C C C C ",
"C C C C C C C C C C C C C C l _ '.1...S.4X..> :X9X4 * * * # = : * = $ * o * ] %XB.+XU >.Y _.X.[.,Xs C C C C C C C C C C C C C C ",
"C C C C C C C C C C C C C C M %X=X]...>.7X] * J  .H # * = = # = $ = = = = * g.i.w B.5X>.U K H.uXS e C C C C C C C C C C C C C C ",
"C C C C C C C C C C C C C C 7.%.M.D.Y Y A.^.; OX[.*.$ # $ * * * * = * # # = ].{.,Xi ~.f.P.*XA.xX/.3 C C C C C C C C C C C C C C ",
"C C C C C C C C C C C C C C M O.]. .0.a.a.H.* 9XwX; # $ * $ * * * = = # $ * uXA.-Xw G.a.i.wXf.E.g.3 C C C C C C C C C C C C C C ",
"C C C C C C C C C C C C C C k 3.E.wX{.j.Y !.* I.R.* $ * * = = * $ * $ # * # 7X#Xo t <.>.8XaX5Xc ).2 C C C C C C C C C C C C C C ",
"C C C C C C C C C C C C C C M Q m.,X<.7X5XoX, <X|.z.. * * $ = = = * * # * * c.$XZ.+XqXO.r j.3.+ I s C C C C C C C C C C C C C C ",
"C C C C C C C C C C C C C C G ;XH.B.] c dX^.* -.b.* * $ * # = * * * $ $ % . -.~.*  X[ b.>.E A.S q.7 C C C C C C C C C C C C C C ",
"C C C C C C C C C C C C C C j [.D.o.%XA.sXS.% 1.4X; * # * * = * * $ $ * # X B.i.w.*.,.4.<.%X[.wX..2 C C C C C C C C C C C C C C ",
"C C C C C C C C C C C C C C - 5XG.Y ).T.5Xx.* 4 ~.g * # * * @X5 X * $ # # . - !.  q.Q.1.).4.O.uXOX2 C C C C C C C C C C C C C C ",
"C C C C C C C C C C C C C C ; [ ^.[ S 5XL !.* &...4 # * * # t $.> * * # # X 8.c k t [.1.! E.<.*Xq.3 C C C C C C C C C C C C C C ",
"C C C C C C C C C C C C C C 6 *XM.h.b.(.i.~.; x.OXo * * = ~.= - 7.; 6 $ # . s.n o N <.i.0.A.3.[./.< C C C C C C C C C C C C C C ",
"C C C C C C C C C C C C C C , 7Xm.f.| j.4.a.* z.6X& * # Y.5.* 7Xw .X*Xx # #  X3X* w s.f.} 4.! %.f.1 C C C C C C C C C C C C C C ",
"C C C C C C C C C C C C C C 6 4Xj._  .H.7Xj.o T A.* $ # * O F.w.J.[.M % # * z.2X:.e.=X....*XO.[.&X3 C C C C C C C C C C C C C C ",
"C C C C C C C C C C C C C C o O.>.o.} A 8XB.o F.[.> * * ;X0 0 ~ e , ].a * * OX4X@Xw i.1.| :Xf.] q.s C C C C C C C C C C C C C C ",
"C C C C C C C C C C C C C C y :Xf.b <.;X6X>.o S.(.- # X 4 I.> F .XY.Y.#X* * 8X9XP.t  .A.} _ o.dX<.s C C C C C C C C C C C C C C ",
"C C C C C C C C C C C C C C y h.!.] S.>.].~.o sXD (.# w t > /.=.'.o / OXy X p.H.7X/ ;X*.P ^.' qXY 1 C C C C C C C C C C C C C C ",
"C C C C C C C C C C C C C C - [ h.{.{ <.[ g.& =X!.X # q.H Y.> T T T J.Y.- . H.>.- Z.:Xo.U ] (.=XB.3 C C C C C C C C C C C C C C ",
"C C C C C C C C C C C C C C 6 >.o.{.J ` n d.. 2.!.- * @X0 ~.e.D.qX> / V.o # A.H.T V.G.o.c i.! U J 1 C C C C C C C C C C C C C C ",
"C C C C C C C C C C C C C C o *XM.7X#XU 8.g.u 9.v.;X= o w H m Y (.+XC.> ; w p.;X3XX *._ *X:XE.Y Y 1 C C C C C C C C C C C C C C ",
"C C C C C C C C C C C C C C - 3.4.,. .8X[.O.] ^.] ^.(.y I 7XI.H. .;Xa r H.g.%Xh.h.0.i.O._ ..>.dX).< C C C C C C C C C C C C C C ",
"C C C C C C C C C C C C C C - [.b.m.8Xc cX] [.#XB [.Y %X2.z.iX%X'.I.O <X=XiX*X>.*XG.5XS.i.'.M.qXB.1 C C C C C C C C C C C C C C ",
"C C C C C C C C C C C C C C * ..f.iXJ Z 8X<.P.U b.%X1.4 C.V o ;X| 7Xo X ;Xv.v.(.v.aX] O.c 0.>.dXY s C C C C C C C C C C C C C C ",
"C C C C C C C C C C C C C C X 5X3.5X..v 8X] /.[ 0.b.4.h.>.a.H. . .3.! ..>._ >.>.1.1.{.G.G.>.).uXS d C C C C C C C C C C C C C C ",
"C C C C C C C C C C C C C C y >.9.1.p.s.c 3X>.dXn.=XU } G.} :X..iX..}.:X>.Q.;XuX5XQ.5X0.D. .%X] J f C C C C C C C C C C C C C C ",
"C C C C C C C C C C C C C C F 9.a.>.E.r 4.b P ] 5Xv 0.>.s.h.!.>.$X` c J v (.*X6XP 4.OX! <.g.! 1.I f C C C C C C C C C C C C C C ",
"C C C C C C C C C C C C C C ~ uXq.{.Y Y ].{ ] k.(.b.K b.^.8.' ).3.Y a...} P.*XA #Xm.} [.].b.i.L q.8 C C C C C C C C C C C C C C ",
"C C C C C C C C C C C C C C F :Xj.Z 3.b Y *.^.{ E.qXD.P...] iXsX0.G.^ %...E.Y a.o.] 4.] Y O.4.%X] 3 C C C C C C C C C C C C C C ",
"C C C C C C C C C C C C C C e M.G.b.Y P.N.].o.i.iXI.).i.^.j.S.0.M.:X=XG.b.D.>.O.U ^ 3.0.o.O.>.uXF.d C C C C C C C C C C C C C C ",
"C C C C C C C C C C C C C C X j.uXuX( (.r 0.%.dXaX5XG...X.3.{.4.uX[.4XW.0.;X[.'.;X*XW.5X^.,X4X4XS 3 C C C C C C C C C C C C C C ",
"C C C C C C C C C C C C C C * w 2.C.F.C.Y.OXI.OX2.C.B.F..XD l i / 6.~ - o * * ; ; ; * * * X     X 9 C C C C C C C C C C C C C C ",
"C C C C C C C C C C C C C C -X+X:.:.@.z x g j h e h j h z l F @.H G G F @.-.Y.<XhX0X0X0XhXpXpXpX>XpXC C C C C C C C C C C C C C ",
"C C C C C C C C C C C C C C 7.7.t.J.z.+XrXzX0XY.q.V.rXzXgX-XV.l.-.+XjXrX.Xt.V.<Xt.z.7.Y.Z.z.6.-.;.=.C C C C C C C C C C C C C C ",
"C C C C C C C C C C C C C C uXuXuXuXxXuXsXsXuXdXxXfXdXsXdXfXfXdXdXfXcXsXdXiXfXdXpXdXsXuXuXiXuXiXsXuXC C C C C C C C C C C C C C "
};
