/* XPM */
static char *_a63bac79df84825f5a787d86d47436e5LXIWxxQX5VB8B6t[] = {
/* columns rows colors chars-per-pixel */
"64 64 207 2 ",
"   c #140700",
".  c #1D121D",
"X  c #200C07",
"o  c #2B1305",
"O  c #291406",
"+  c #351A06",
"@  c #341B0B",
"#  c #281916",
"$  c #331D12",
"%  c #34210E",
"&  c #3A2517",
"*  c #1D1329",
"=  c #151438",
"-  c #352726",
";  c #282638",
":  c #431D0B",
">  c #41220E",
",  c #452413",
"<  c #462913",
"1  c #4A2E14",
"2  c #4C3018",
"3  c #593616",
"4  c #432B29",
"5  c #4E3A2F",
"6  c #533B29",
"7  c #665B13",
"8  c #594639",
"9  c #754B20",
"0  c #644B3B",
"q  c #6A4E3B",
"w  c #61513E",
"e  c #6D523B",
"r  c #72543D",
"t  c #7E563D",
"y  c #765A3D",
"u  c #7A5B3D",
"i  c #756E28",
"p  c #76623F",
"a  c #161B56",
"s  c #171B5C",
"d  c #1C2052",
"f  c #2B2A4C",
"g  c #352F54",
"h  c #373051",
"j  c #161B65",
"k  c #141B6B",
"l  c #191E69",
"z  c #1E2160",
"x  c #1F246D",
"c  c #21266C",
"v  c #2A2C69",
"b  c #333673",
"n  c #383D7A",
"m  c #503F4E",
"M  c #4E454A",
"N  c #5E4D42",
"B  c #594C4A",
"V  c #5F5042",
"C  c #584C51",
"Z  c #604F49",
"A  c #655143",
"S  c #6A5546",
"D  c #785741",
"F  c #765A41",
"G  c #7A5C44",
"H  c #7D5E49",
"J  c #695955",
"K  c #715F50",
"L  c #7D6144",
"P  c #7D6049",
"I  c #6B6151",
"U  c #746258",
"Y  c #7D6A5B",
"T  c #464366",
"R  c #575462",
"E  c #786761",
"W  c #797468",
"Q  c #8E5F2D",
"!  c #995E27",
"~  c #835E3D",
"^  c #9E6527",
"/  c #84613E",
"(  c #8A613D",
")  c #A87237",
"_  c #B27030",
"`  c #B9793C",
"'  c #CF7106",
"]  c #D2740F",
"[  c #D4790F",
"{  c #CD7515",
"}  c #CE781B",
"|  c #D37714",
" . c #D47915",
".. c #D37A1B",
"X. c #D67918",
"o. c #DA7C1A",
"O. c #C3762A",
"+. c #845F41",
"@. c #846040",
"#. c #886242",
"$. c #856249",
"%. c #896849",
"&. c #9F764F",
"*. c #8D6B52",
"=. c #9F7650",
"-. c #9A7756",
";. c #A1754F",
":. c #B67E40",
">. c #A37651",
",. c #A47851",
"<. c #A0795A",
"1. c #806E61",
"2. c #837161",
"3. c #977662",
"4. c #DD8318",
"5. c #E2871D",
"6. c #E4881B",
"7. c #EE941E",
"8. c #C0863F",
"9. c #DA973D",
"0. c #E98C23",
"q. c #F08E21",
"w. c #EE9425",
"e. c #E5942A",
"r. c #EE952A",
"t. c #EE982C",
"y. c #F29525",
"u. c #F19827",
"i. c #F19528",
"p. c #F3992D",
"a. c #EC9433",
"s. c #E79835",
"d. c #EB9935",
"f. c #EC9B39",
"g. c #F19633",
"h. c #F59931",
"j. c #F8DF0F",
"k. c #EFDA12",
"l. c #F6DA14",
"z. c #F6DD1C",
"x. c #FBDF1E",
"c. c #FAE419",
"v. c #FBE11C",
"b. c #EEDD22",
"n. c #F7DD28",
"m. c #ECD633",
"M. c #F2DF34",
"N. c #FCE222",
"B. c #F5E238",
"V. c #A69A43",
"C. c #B9AD49",
"Z. c #909073",
"A. c #BC966F",
"S. c #A1877F",
"D. c #BAB67A",
"F. c #CB8C46",
"G. c #D28E41",
"H. c #DC8F44",
"J. c #D79042",
"K. c #DC9443",
"L. c #D69149",
"P. c #E69A44",
"I. c #F19F41",
"U. c #CFBE46",
"Y. c #C6B555",
"T. c #F5A347",
"R. c #FAA956",
"E. c #FBAD5D",
"W. c #FEB15F",
"Q. c #D6A578",
"!. c #FCAE63",
"~. c #F7AD69",
"^. c #FEB165",
"/. c #FDB269",
"(. c #F3AE72",
"). c #EDB175",
"_. c #F7B271",
"`. c #D3C749",
"'. c #EFDC40",
"]. c #E1D350",
"[. c #C9C46D",
"{. c #AB9F8C",
"}. c #CDAA86",
"|. c #C4A68E",
" X c #CEA68C",
".X c #C7AD8A",
"XX c #CEAB8B",
"oX c #D0AB87",
"OX c #D1AC8A",
"+X c #D1B08E",
"@X c #C6AD93",
"#X c #CCAC91",
"$X c #CFAF94",
"%X c #D3C2B0",
"&X c #F5DEBF",
"*X c #FADCBF",
"=X c #F8E1BF",
"-X c #ECDBC2",
";X c #EFDCC9",
":X c #F6DEC2",
">X c #F9DFC5",
",X c #FCDFC8",
"<X c #F7E1C2",
"1X c #F9E1C3",
"2X c #F8E8C4",
"3X c #F5E3CB",
"4X c #F9E4C9",
/* pixels */
"k k k k k k k k k k k k k k k k k k k k k k k k k k k k k s m.n.W k k k k k k k k k k k k k k k k k k k k k k k k k k k k k k k ",
"k k k k k k k k k k k k k k k k k k k k k k k k k k k k b.j.C.k k k k k k k k k k k k k k k k k k k k k k k k k k k k k k k k k ",
"k k k k k k k k k k k k k k k k k k k k k k k k k k k U.v.v.k k k k k k k k k k k k k k k k k k k k k k k k k k k k k k k k k k ",
"k k k k k k k k k k k k k k k k k k k k k k k k k k k v.v.Y.k k k k k = k k k k k k k k k k k k k k k k k k k k k k k k k k k k ",
"k k k k k k k k k k k k k k k k k k k k k k k k k k c x.v.`.k k k k c c.`.k k k k k k k k k k k k k k k k k k k k k k k k k k k ",
"k k k k k k k k k k k k k k k k k k k k k k k k k k k v.v.v.k k k k k . Y k k k k k k k k k k k k k k k k k k k k k k k k k k k ",
"k k k k k k k k k k k k k k k k k k k k k k k k k k k v.v.v.B.k k k k ; k k k k k k k k k k k k k k k k k k k k k k k k k k k k ",
"k k k k k k k k k k k k k k k k k k k k k k k k k k k a c.v.x.x.m.z.M.k k k k k k k k k k k k k k k k k k k k k k k k k k k k k ",
"k k k k k k k k k k k k k k k k k k k k k k k k k k k k a N.l.c.l.].k k k k k k k k k k k k k k k k k k k k k k k k k k k k k k ",
"k k k k k k k k k k k k k k k k k k k k k k k k k k k k k k c   k k k k k k k k k k k k k k k k k k k k k k k k k k k k k k k k ",
"k k k k k k k k k k k k k k k k k k k k k k k k k k k k k k 4 i.g.s k k k k k k k k k k k k k k k k k k k k k k k k k k k k k k ",
"k k k k k k k k k k k k k k k k k k k k k k k k k k k k k ` 4.i.y.T.5 k k k k k k k k k k k k k k k k k k k k k k k k k k k k k ",
"k k k k k k k k k k k k k k k k k k k k k k k k k k k s o. .i.i.i.y.R.~.k k k k k k k k k k k k k k k k k k k k k k k k k k k k ",
"k k k k k k k k k k k k k k k k k k k k k k k k k k ` ] | i.i.i.i.i.i.T./.m k k k k k k k k k k k k k k k k k k k k k k k k k k ",
"k k k k k k k k k k k k k k k k k k k k k k k k - ' | | w.i.i.i.i.i.i.i.r.^.E.j k k k k k k k k k k k k k k k k k k k k k k k k ",
"k k k k k k k k k k k k k k k k k k k k k k v  .{ |  .i.i.i.i.i.i.i.i.i.i.y.E.^.).k k k k k k k k k k k k k k k k k k k k k k k ",
"k k k k k k k k k k k k k k k k k k k k k O.| | | o.y.i.i.i.i.i.i.i.i.i.i.i.u.h././.U k k k k k k k k k k k k k k k k k k k k k ",
"k k k k k k k k k k k k k k k k k k k # X.| | | p.y.i.i.i.i.i.i.i.i.i.i.i.i.i.i.y.E.^.^.z k k k k k k k k k k k k k k k k k k k ",
"k k k k k k k k k k k k k k k k k k O.X.| | | i.i.i.i.i.i.i.i.i.i.i.i.i.i.i.i.i.i.i.r./.^.*.k k k k k k k k k k k k k k k k k k ",
"k k k k k k V.[.k k k k k k k k c [ | | |  .i.i.i.i.i.i.i.i.i.i.i.i.i.i.i.i.i.i.i.i.i.p.E.^.(.k k k k k k k d C.= k k k k k k k ",
"k k k k k z.; k k k k k k k k l  .| | | | i.i.i.i.i.i.i.i.i.i.i.i.i.i.i.i.i.i.i.i.i.i.i.i.^.^.(.k k k k k Y.n.k k k k k k k k k ",
"k k k k `.v.k k k k k k k k k } | | | | 6.i.i.i.i.i.i.i.i.i.i.i.i.i.i.i.i.i.i.i.i.i.i.i.i.i.^.^.-.k k k k v.V.k k k Z.k k k k k ",
"k k k k B.v.v k k ; - k k k # [ | | | | i.i.i.i.i.i.i.i.i.i.i.i.i.i.i.i.i.i.i.i.i.i.i.i.i.i.R.^.W.x k k l v.M.k k k 7 k k k k k ",
"k k k k ; v.k.k k D.k k k k  .| | | | 0.i.i.i.i.i.i.i.i.i.i.i.i.i.i.i.i.i.i.i.i.i.i.i.i.i.i.i.^.^.A.k k k c.v.I k s k k k k k k ",
"k k k k k i c.N.'.k k k k x | | | | | i.i.i.i.i.i.i.i.i.i.i.i.i.i.i.i.i.i.i.i.i.i.i.i.i.i.i.i.^.^.!.k k k k N.z.n.f k k k k k k ",
"k k k k k k k j k k k k k g | | | | | i.i.i.i.i.i.i.i.i.i.i.i.i.i.i.i.i.i.i.i.i.i.i.i.i.i.i.y.^.^.^.k k k k k k k k k k k k k k ",
"k k k k k k j p.Q.k k k k # | | | | | i.i.i.i.i.i.i.i.i.i.i.i.i.i.i.i.i.i.i.i.i.i.i.i.i.i.i.u.^.^.^.k k k k k i._ k k k k k k k ",
"k k k k k = ] i.y.).k k k h | | | |  .i.i.i.i.i.i.i.i.i.i.i.i.i.i.i.i.i.i.i.i.i.i.i.i.i.i.i.y.^.^.^.k k k k f.i.i.} k k k k k k ",
"k k k k )  .y.i.i.y.!.f k x  .| | |  .i.i.i.i.i.i.i.i.i.i.i.i.i.i.i.i.i.i.i.i.i.i.i.i.i.i.i.y.^.^.R.k k 3.I.h.i.i.y.| * k k k k ",
"k k k o.| y.y.i.i.i.y.E.3.k ..| | |  .5.i.i.i.i.i.i.i.i.i.i.i.i.i.i.i.i.i.i.i.i.i.i.i.i.i.i.f.^.^.<.k /.g.r.i.i.i.i.y.X.) k k k ",
"k k | ] w.w.i.i.i.i.i.y./.%.n o.]  .| { i.i.i.w.r.i.r.i.r.r.r.i.i.i.r.r.r.r.i.r.r.r.i.i.y.y.^.^.~.k !.r.i.i.i.i.i.i.i.5.| ^ k k ",
"k 6 | 5.i.i.i.i.i.i.i.i.I.^.k P $.$.+.@.+.+.+.@.@.+.+.@.@.@.@.@.@.@.@.@.@.@.@.@.@.@.@.@.@.+.@.+.$.* ^.y.i.i.i.i.i.i.i.i.| | k k ",
"k ! |  .i.i.i.i.i.i.i.i.d./.k / / ~ #.#.~ ~ ~ ~ ~ ~ ~ @.@.~ ~ ~ ~ @.@.~ ~ / @.~ ~ ~ +.~ +.~ @.~ +.u ^.w.y.i.i.i.i.i.i.p.| | b k ",
"k b | X.p.i.i.y.y.i.r.i.E._.k -X3X4X3X<X1X1X1X1X1X1X1X1X1X1X1X1X1X1X1X1X1X1X1X1X1X1X1X4X4X3X3X-X%Xk E.i.w.i.i.w.y.i.p. .| { k k ",
"k k R H @.@.+.@.+.$.@.H 8 k k 1X1X1X1X1X1X1X1X1X1X1X1X1X1X1X1X1X1X1X1X1X1X1X1X1X1X1X1X1X1X1X1X1X1Xk k A L @.$.@.~ $.@.$.y k k k ",
"k k T ~ ~ @.+.+.@.~ ~ @.~ k k 1X1X1X1X1X1X1X1X1X1X1X1X1X1X1X1X1X1X1X1X1X1X1X1X1X1X1X1X1X1X1X1X1X>Xk k ~ u u / / ~ / / ~ ~ k k k ",
"k XXOXXXOXXXXXXXOXXXoXoXXX}.|.3X1X1X1X1X1X1X1X1X1X1X1X1X1X1X1X1X1X1X1X1X1X1X1X1X1X1X1X1X1X1X1X1X=XXXXXXX}.OXXXOX}.OXXXOX}.}.M k ",
"k }.XXXXXXXXXXXXXXXXXXXXXXXX@X1X1X1X1X1X1X1X1X1X1X1X1X1X1X1X1X1X1X1X1X1X1X1X1X1X1X1X1X1X1X1X1X1X1X}.XXXXXXXXXXXXXXXXXXXXXXXXM k ",
"k oXXXXXXXXXXXXXXXXXXXXXXXXX@X<X1X1X1X1X1X1X1X1X1X1X1X1X1X1X1X1X1X1X1X1X1X1X1X1X1X1X1X1X1X1X1X1X1XOXXXXXXXXXXXXXXXXXXXXXXXXXT k ",
"k }.XXXXXXXXXXXXXXXXXXXXXXXX@X1X1X1X1X1X1X1X1X1X1X1X1X1X1X-X{.Z w Z S.;X:X1X1X1X1X1X1X1X1X1X1X1X1XXXXXXXXXXXXXXXXXXXXXXXXXXXC k ",
"k }.XXXXXXXXXXXXXXXXXXXXXXXX@X<X1X1X1X1X1X1X1X1X1X1X{.s.y.q.r.s.f.a.u.u.0.T.I &X1X1X1X1X1X1X1X1X1XXXXXXXXXXXXXXXXXXXXXXXXXXXB k ",
"k XXXXXXXXXXXXXXXXXXXXXXXXXX@X<X1X1X1X1X1X1X1X1X:XH.w.3 p ( +.@.+.~ +.~ L : 7.s.4X1X1X1X1X1X1X1X1XXXXXXXXXXXXXXXXXXXXXXXXXXXJ k ",
"k XXXXXXXXXXXXXXXXXXXXXXXXXX@X<X1X1X1X1X1X1X1X&Xf.P.~ ~ +.@.+.@.@.@.+.+.@.~ L ) e.*X1X1X1X1X1X1X1XXXXXXXXXXXXXXXXXXXXXXXXXXXJ k ",
"k XXXXXXXXXXXXXXXXXXXXXXXXXX@X<X1X1X1X1X1X1X:X$ 7.%.@.@.@.@.@.@.@.@.@.@.@.@.@.~ P.:.<X1X1X1X1X1X1XXXXXXXXXXXXXXXXXXXXXXXXXXXJ k ",
"k XXXXXXXXXXXXXXXXXXXXXXXXXX@X<X1X1X1X1X1X1X1Xd.& @.+.@.@.@.@.@.@.@.@.@.@.@.@.@.G u.3X1X1X1X1X1X1X}.XXXXXXXXXXXXXXXXXXXXXXXXU k ",
"k XXXXXXXXXXOX+X}.oXXXXXXXXX@X<X1X1X1X1X1X1X:Xp.6 @.@.@.@.@.@.@.@.@.@.@.@.@.@.@.@.t.3X1X1X1X1X1X1X}.XXXXXXXXXX X X}.XXXXXXXXE k ",
"k }.XXXX.XQ r.y.r.f.Y OXXXXX@X<X1X1X1X1X1X1X>Xw.0 @.@.@.@.@.@.@.@.@.@.@.@.@./ @.$.i.3X1X1X1X1X1X1XXXXXXX}.3 t.w.r.s.o +XXXXXE k ",
"k }.XX$Xw.9.6 H F > p.> XXXX@X<X1X1X1X1X1X1X>Xy.q @.@.@.@.@.@.@.@.@.@.@.@.@.@.@.@.i.1X1X1X1X1X1X1XXXXX}.s.h.& H G @ w.8.XXXXE k ",
"k }.XXL.` $.@.@.@.+.S g.XXXX@X1X1X1X1X1X1X1X1Xi.r @.@.@.@.@.@.@.@.@.@.@.@.@.@.@.@.i.3X1X1X1X1X1X1X}.XX+ e.#.@.@.@.+.G w.2.XXE k ",
"k oXXXp.P @.@.@.@.@.~ a.5 XX@X<X1X1X1X1X1X1X>Xy.D @.@.@.@.@.@.@.@.@.@.@.@.@.@.@.@.w.1X1X1X1X1X1X1X}.XXd.o +.@.@.@.@.+.9 F.XX1.k ",
"k XX#Xy.~ @.@.@.@.@.+.K.> XX@X<X1X1X1X1X1X1X>Xy.u @.@.@.@.@.@.@.@.@.@.@.@.@.@.+.+.i.1X1X1X1X1X1X1X}.XXy.8 @.@.@.@.@.+.X s.XX2.k ",
"k }.XXy.~ @.@.@.@.@.+.9.< XX@X<X1X1X1X1X1X1X,Xy.u @.@.@.@.@.@.@.@.@.@.@.@.@.@.@.@.y.2X1X1X1X1X1X1X}.XXi.8 @.@.@.@.@.+.O s.XX2.k ",
"k }.#Xi.~ @.@.@.@.@.+.J.1 XX@X<X1X1X1X1X1X1X4Xy.u @.@.@.@.@.@.@.@.@.@.@.@.@.@.@.+.y.2X1X1X1X1X1X1X}.XXi.8 +.@.@.@.@.@.o a.XX2.k ",
"k oX#Xy.~ @.@.@.@.@./ G.1 XX@X<X1X1X1X1X1X1X3Xy.u @.@.@.@.@.@.@.@.@.@.@.@.@.@.@.+.y.2X1X1X1X1X1X1XXXXXp.q +.@.@.@.@.@.@ a.XX2.k ",
"k OX.Xw.~ @.@.@.@.@./ G.2 XX@X<X1X1X1X1X1X1X1Xu.u @.@.@.@.@.@.@.@.@.@.@.@.@.@.@.+.w.2X1X1X1X1X1X1X}.XXi.S +.@.@.@.@.@.@ a.XXY k ",
"k }..Xy.+.@.@.@.@.@.~ G.1 XX@X<X1X1X1X1X1X1X>Xi.r @.@.@.@.@.@.@.@.@.@.@.@.@.@.@.@.u.2X1X1X1X1X1X1X}.XXi.S +.@.@.@.@.@.% a.XXY k ",
"k XXXXy.+.@.@.@.@.@.+.G.1 XX@X<X1X1X1X1X1X1X1Xy.e @.@.@.@.@.@.@.@.@.@.@.@.@.@.@.+.y.2X1X1X1X1X1X1XXXXXp.q @.@.@.@.@.@.% g.XXY k ",
"k oXXXy.~ @.@.@.@.@.+.K.1 XX@X<X1X1X1X1X1X1X,Xp.0 @.@.@.@.@.@.@.@.@.@.@.@.@.@.@.@.y.2X1X1X1X1X1X1XOXXXi.A @.@.@.@.@.@.% g.XXU k ",
"k }..Xy.+.@.@.@.@.@.+.J.< XX@X<X1X1X1X1X1X1X>Xi.N @.@.@.@.@.@.@.@.@.@.@.@.@.@.@.@.w.2X1X1X1X1X1X1XXXXXi.V @.@.@.@.@.@.$ a.XXK k ",
"k }.#Xy./ @.@.@.@.@.+.K.< XX@X<X1X1X1X1X1X1X1Xr.8 @.@.@.@.@.@.@.@.@.@.@.@.@.@.+.@.i.3X1X1X1X1X1X1XXXXXw.N @.@.@.@.@.@.@ s.XXK k ",
"k OX#Xi.+.@.@.@.@.@.@.K., XX@X<X1X1X1X1X1X1X<Xr.6 @./ @.@.@.@.@.@.@.@.@.@.@.@.@.@.y.2X1X1X1X1X1X1XXXXXi.8 @.@.@.@.@.@.@ a.XXN k ",
"k }.XXi.@.@.@.@.@.@.@.K., XX@X&X1X1X1X1X1X1X3Xr.4 +.@.@.@.@.@.@.@.@.@.@.@.@.@.@.$.y.1X1X1X1X1X1X1X#XXXy.8 @.@.@.@.@.@.o e.XXB k ",
"P F F G G F F F F F G G H H G L P H P P P H H H t F F F F F F F F F F F F F F F F y G F H F F y F F D r r r r r e r r e e e q A ",
"-.,.>.>.>.;.;.>.>.>.>.=.;.=.&.&.>.>.>.&.=.>.;.&.;.=.>.=.=.>.>.>.;.;.>.>.>.>.>.>.>.>.>.;.>.>.>.>.>.>.>.>.>.>.>.>.>.>.>.>.,.,.>.>."
};
