/* XPM */
static char *_ffd1351f1894240bf8fcd592cff71f0lNZdQXbL0mELajdv[] = {
/* columns rows colors chars-per-pixel */
"64 64 243 2 ",
"   c #080506",
".  c #140B0B",
"X  c #0C0B11",
"o  c #161218",
"O  c #27140D",
"+  c #231816",
"@  c #3E351B",
"#  c #221E22",
"$  c #1F2231",
"%  c #3B2D29",
"&  c #2E2A31",
"*  c #463A1D",
"=  c #482A2E",
"-  c #483A26",
";  c #583D23",
":  c #473A34",
">  c #623E36",
",  c #60441E",
"<  c #4C4326",
"1  c #56482C",
"2  c #5A4A37",
"3  c #64442A",
"4  c #644B2D",
"5  c #69542B",
"6  c #624B34",
"7  c #694A3B",
"8  c #744E33",
"9  c #6B5A35",
"0  c #695738",
"q  c #755838",
"w  c #766132",
"e  c #77663C",
"r  c #393850",
"t  c #141B6B",
"y  c #171D68",
"u  c #1C226A",
"i  c #30336E",
"p  c #433E45",
"a  c #3E424C",
"s  c #374671",
"d  c #484849",
"f  c #554A4E",
"g  c #5B5443",
"h  c #494857",
"j  c #565358",
"k  c #6E4947",
"l  c #685646",
"z  c #755947",
"x  c #675B58",
"c  c #785856",
"v  c #6C6249",
"b  c #776748",
"n  c #7D744A",
"m  c #6C6556",
"M  c #786A57",
"N  c #6D705F",
"B  c #7A7656",
"V  c #7A735B",
"C  c #4B4B61",
"Z  c #4E5867",
"A  c #5B5A6A",
"S  c #4C4D75",
"D  c #635D64",
"F  c #57646D",
"G  c #596377",
"H  c #6C6568",
"J  c #786868",
"K  c #79776A",
"L  c #666675",
"P  c #6D6A79",
"I  c #746D78",
"U  c #67727C",
"Y  c #797578",
"T  c #835A38",
"R  c #86693A",
"E  c #835852",
"W  c #826948",
"Q  c #916C44",
"!  c #877445",
"~  c #93754A",
"^  c #866557",
"/  c #93645B",
"(  c #887658",
")  c #847A5C",
"_  c #977D57",
"`  c #945E62",
"'  c #866B67",
"]  c #966B68",
"[  c #837C64",
"{  c #8C7B65",
"}  c #887769",
"|  c #957667",
" . c #806B72",
".. c #837C74",
"X. c #897778",
"o. c #997777",
"O. c #9B7B75",
"+. c #A1716D",
"@. c #A47B7C",
"#. c #89825B",
"$. c #9A835B",
"%. c #A3845B",
"&. c #8B8266",
"*. c #898469",
"=. c #96876A",
"-. c #878677",
";. c #8B847C",
":. c #9D847B",
">. c #988A78",
",. c #999379",
"<. c #A48C68",
"1. c #AD926C",
"2. c #A78879",
"3. c #A89777",
"4. c #A2957C",
"5. c #B59B7B",
"6. c #B3A37A",
"7. c #3A5185",
"8. c #4B578D",
"9. c #485889",
"0. c #595B89",
"q. c #576988",
"w. c #506895",
"e. c #646B8A",
"r. c #6D7B84",
"t. c #677689",
"y. c #797784",
"u. c #707189",
"i. c #727D8B",
"p. c #767994",
"a. c #667AA4",
"s. c #707BA6",
"d. c #867D86",
"f. c #987B87",
"g. c #7A8488",
"h. c #6C809D",
"j. c #7A8693",
"k. c #798BA3",
"l. c #7688B1",
"z. c #878687",
"x. c #958485",
"c. c #9C8B83",
"v. c #899189",
"b. c #989689",
"n. c #8C8595",
"m. c #8D8D93",
"M. c #888A9A",
"N. c #968B97",
"B. c #87939A",
"V. c #959693",
"C. c #989698",
"Z. c #A38B85",
"A. c #A68887",
"S. c #B48B8A",
"D. c #A99788",
"F. c #B39A87",
"G. c #A78A95",
"H. c #AC9A93",
"J. c #A89A98",
"K. c #B59896",
"L. c #9FA29B",
"P. c #A6A288",
"I. c #B3A48B",
"U. c #BCA888",
"Y. c #A9A798",
"T. c #B8A899",
"R. c #ACB29C",
"E. c #BDB29E",
"W. c #8A8BA3",
"Q. c #8995A7",
"!. c #9999A6",
"~. c #9091AD",
"^. c #979FB3",
"/. c #A79AA8",
"(. c #B99CA4",
"). c #AA9BB6",
"_. c #9BA5A8",
"`. c #9AA5B5",
"'. c #A9A8A7",
"]. c #BAA9A6",
"[. c #AFB1A8",
"{. c #B7B5A8",
"}. c #BCB4AB",
"|. c #A5A3B2",
" X c #A9AAB3",
".X c #B4A9B6",
"XX c #AAB3B9",
"oX c #BBBBB4",
"OX c #B5B4B8",
"+X c #C49695",
"@X c #C3AB89",
"#X c #C4AA97",
"$X c #C6B59A",
"%X c #D0B893",
"&X c #C7A8A7",
"*X c #D2ABA8",
"=X c #C8B7A5",
"-X c #C4BCAD",
";X c #D1BBA6",
":X c #C5ACB5",
">X c #C4B9B6",
",X c #D8B7B6",
"<X c #E1B1AF",
"1X c #BBC7BB",
"2X c #DAC79E",
"3X c #CAC0AB",
"4X c #D7C4AC",
"5X c #C7C6B7",
"6X c #CBC3B3",
"7X c #D6C7B5",
"8X c #D5CCBC",
"9X c #DACBBC",
"0X c #CBD3BC",
"qX c #D8D2BC",
"wX c #E4CFAC",
"eX c #E6D5BA",
"rX c #93A1C0",
"tX c #B4AEC1",
"yX c #B7B8C6",
"uX c #C4BBC7",
"iX c #C9B8D2",
"pX c #BCC1C7",
"aX c #BCC8D6",
"sX c #C8C7C8",
"dX c #D7CBC4",
"fX c #CFD1C4",
"gX c #D8D4C7",
"hX c #DCDECE",
"jX c #C7C8D4",
"kX c #CCCBD4",
"lX c #D2CEDA",
"zX c #CBD2D7",
"xX c #D4D4D5",
"cX c #D9D9D9",
"vX c #E8CFC1",
"bX c #E5DBC8",
"nX c #DEE1D0",
"mX c #E8E7C9",
"MX c #E4E6D8",
"NX c #CFD7E1",
"BX c #DAD7E4",
"VX c #E7E8E8",
"CX c #EFEFEE",
/* pixels */
"t t t t t t t t t t t t t t t t t t t t t t t t t t t t S C.x.].J.}.P t t t t t t t t t t t t t t t t t t t t t t t t t t t t t ",
"t t t t t t t t t t t t t t t t t t t t t t t t t 0...V  .J X.x.N.C.J.x.X.i t t t t t t t t t t t t t t t t t t t t t t t t t t ",
"t t t t t t t t t t t t t t t t u ].T.t t t t L y.W.n.n.y.n.n.!..X).).)..XuXiXjXt t t t i Y.{.u t t t t t t t t t t t t t t t t ",
"t t t t t t t t t t t t t t t t x.O.K.9X0.t t j I I Y A Y K I X..XG.N./.&X&X:X:X.Xt t ].H.D.]..Xt t t t t t t t t t t t t t t t ",
"t t t t t t t t t t t t t t t t X.| o.c.>X:Xp.j m x m J J J J ] G.x.A.(.+X&X#X&X].:XH.D.Z.:.H.OXt t t t t t t t t t t t t t t t ",
"t t t t t t t t t t t t t t t t L | :.c.].,Xc.g v l M l @.o.' O.' S.+X@.*XS.<X*X*XA.Z.H.Z.2.A..Xt t t t t t t t t t t t t t t t ",
"t t t t t t t t t t t t t t t t S ^ o.x.J.]...g g x M m o.X.J O.} @.S.G.*X*X,X*X&XS.Z.c.Z.2.S.0.t t t t t t t t t t t t t t t t ",
"t t t t t t t t t t t t t t t t y E ] c.;.Z.H d < d 2 f c ' X.]  .' | f.A.G.S.(.K.Z.Z.T.T.2.Z.t t t t t t t t t t t t t t t t t ",
"t t t t t t t t t t t t t t t t t ^ o.H.Z.M j h d d a j j H I J n.n.x.).d././..X/.' ' o.| 2.H.t t t t t t t t t t t t t t t t t ",
"t t t t t t t t t t t t t t t t t } / O.K.:.: a j D D D D D H I z.n.N.G.).uXiXuXf.A.2.] / O..Xt t t t t t t t t t t t t t t t t ",
"t t t t t t t t t t t t t t t t t i k 8 z M g @ * < ; - - - - - - 1 2 l l l M ( { O.^ ` / H.t t t t t t t t t t t t t t t t t t ",
"t t t t t t t t t t t t t t t t t t ] 7 c :.{ 1 < - - @ * - < 1 - 6 7 z ^ ^ ^ 2.D.O.z E ] &Xt t t t t t t t t t t t t t t t t t ",
"t t t t t t t t t t t t t t t t t t :.E c ' { =.=.<.<._ ! $.~ ! _ W _ 1.5.F.T.3.A.A.O.+.,X].t t t t t t t t t t t t t t t t t t ",
"t t t t t t t t t t t t t t t t t t D.> | ( _ ( =.3.$._ R ~ R w %._ 5.5.@X@XU.3.S.K.D.] K.>Xt t t t t t t t t t t t t t t t t t ",
"t t t t t t t t t t t t t t t t t t H.| 7 0 n =.4.I.( _ <.Q R Q _ @X@X5.#X;X=X#X#XK.O.^ ,XgXt t t t t t t t t t t t t t t t t t ",
"t t t t t t t t t t t t t t t t t t D.| ^ ( =.D.Y.-X2.3.6._ T R %.4X$X#X4X4X4X;X=X=X:.K.7XgXt t t t t t t t t t t t t t t t t t ",
"t t t t t t t t t t t t t t t t t t D.>.) &.4.}.3X3XT.>.I.$.$.~ 1.eX=X&XdX6XdX9X4X4X9X9X8XhXt t t t t t t t t t t t t t t t t t ",
"t t t t t t t t t t t t t t t t t t =.<.=.) ,.E.P.H.} 4.4.6.<.<.F.7XT.].dX7XgXbXeX7XeXbXgXnXt t t t t t t t t t t t t t t t t t ",
"t t t t t t t t t t t t t t t t t t #.! =.( { +     . m M 3.5.3.I.}.J.+   + H.bXeXeXeXeXqXpXt t t t t t t t t t t t t t t t t t ",
"t t t t t t t t t t t t t t t t t t =.e ! q l .   X r d [ 4.F.T.-XsX: . o # : E.wXeXwX7X8Xt t t t t t t t t t t t t t t t t t t ",
"t t t t t t t t t t t t t t t t t t i w , q ^ .     X + } &.F.$X8XkX.   X   % 9X5.%X2X;XgXt t t t t t t t t t t t t t t t t t t ",
"t t t t t t t t t t t t t t t t t t t b 5 q ( O o     # H.4.F.4XgXsX.     + J bX;X1.2X;X|.t t t t t t t t t t t t t t t t t t t ",
"t t t t t t t t t t t t t t t t t t t ( R 5 5 6 : d  .c :.5.U.3XvX].].% + g ].=X#X$XU.7Xt t t t t t t t t t t t t t t t t t t t ",
"t t t t t t t t t t t t t t t t t t t t ) e , T | ,.^ 3 z F.7X;XU.F.T.dX-X=X2.F.=X8X$XgXt t t t t t t t t t t t t t t t t t t t ",
"t t t t t t t t t t t t t t t t t t t t &.( q q ~ _ z 8 7 K.:XdXF.U.F.;XE.$X5.$XgXMX5Xi t t t t t t t t t t t t t t t t t t t t ",
"t t t t t t t t t t t t t t t t t t t t &.0 0 ( ( { >.H.: ] S.o.H.MX8X-XE.I.#X=XbXgXfXt t t t t t t t t t t t t t t t t t t t t ",
"t t t t t t t t t t t t t t t t t t t t e.M B ) =.[.uXuX].= c G.VXVXcXVXdX-X6XI.E.-X8.t t t t t t t t t t t t t t t t t t t t t ",
"t t t t t t t t t t t t t t t t t t t t t =.B B ,.Y.OX XtX(.f J.kXBXcXBXVXfX{.P.Y.hXt t t t t t t t t t t t t t t t t t t t t t ",
"t t t t t t t t t t t t t t t t t t t t u.( >.&.N z._.m.y.H = J C.yXyXjXzXV.'.[.5XsXXX9.t t t t t t t t t t t t t t t t t t t t ",
"t t t t t t t t t t t t t t t t t t t t -Xb 6 B [ -.-.v.x J I Y x m. XXXXXoX{.'.hX`.Q._._.jXt t t t t t t t t t t t t t t t t t ",
"t t t t t t t t t t t t t t t t t t t t =.4 4 M v [ V *.;.-.-.v.b.b.V.C.[.oX[.Y xXt.Q.yXi.`.t t t t t t t t t t t t t t t t t t ",
"t t t t t t t t t t t t t t t t t t t m.( W q ; b v 2 0 v M >.;.-.K *.c.Y.hXsXv.k.q.g.J.M.`.t t t t t t t t t t t t t t t t t t ",
"t t t t t t t t t t t t t t t t t t t P.( e 9 9 6 0 4 ; 6 2 l z M b ) >.V.pXj.q.w.k._.C.`.rXt t t t t t t t t t t t t t t t t t ",
"t t t t t t t t t t t t t t t t t t t *.( b b ( 4 4 ; 4 3 1 5 b { ,.6.#XW.w.q.w.w.^.B.j.k.t t t t t t t t t t t t t t t t t t t ",
"t t t t t t t t t t t t t t t t t t R.B ( b v ) b q 3 3 0 e $.F.F.I.I.>XG 9.q.k.s.M.j.Q.`.t t t t t t t t t t t t t t t t t t t ",
"t t t t t t t t t t t t t t t t t t P.( n 9 B M ) ( M [ =.3.I.6X8XdX8XOXi.9.l.l.~.M.B.i.aXt t t t t t t t t t t t t t t t t t t ",
"t t t t t t t t t t t t t t t t t t ) 9 n M M V [ ) *.b.c.{.-X8XcXMXMX_.e.q.a.8.Q.!.M.Q.t t t t t t t t t t t t t t t t t t t t ",
"t t t t t t t t t t t t t t t t t t B 4 z b [ K M } -.oXY.6XgXsXxXVXcXr.t.Q.k.q.g.!.Q.i.t t t t t t t t t t t t t t t t t t t t ",
"t t t t t t t t t t t t t t t t t t n e 0 V [ ..K } c.[.5XfXcXkXcXxXyXk.j.G e.r.|.!.^.kXt t t t t t t t t t t t t t t t t t t t ",
"t t t t t t t t t t t t t t t t t t 5 e b v 6 l K K ;.b.5XoXcXsXkXkX!.e.~.Q.`.B.j.M.B.5Xp.t t t t t t t t t t t t t t t t t t t ",
"t t t t t t t t t t t t t t t t t t e e b b 0 g K N K Y.[.oXoXpXsXBXyXB.U i.e.r.g.Q.B.qXXXt t t t t t t t t t t t t t t t t t t ",
"t t t t t t t t t t t t t t t t t t n e 0 6 6 1 g K -.b.{.oXXXjXzXzXXXg.B.U B.g.j.Q.}.gXt t t t t t t t t t t t t t t t t t t t ",
"t t t t t t t t t t t t t t t t t t &.) ( l * - : J v.V.'.OXOXzXNXyXj.r.F F i.g. XC.}.dXt t t t t t t t t t t t t t t t t t t t ",
"t t t t t t t t t t t t t t t t t t ;.[ *.V l - % K v.C.'.'.OXzXjX_.r.F U r.r.g.C.|.8XxXt t t t t t t t t t t t t t t t t t t t ",
"t t t t t t t t t t t t t t t t t t u &.,.*.v 2 : z.OXy.z.!.C.y.A Z Z r.r.r.p.Q.B.}.6X0.t t t t t t t t t t t t t t t t t t t t ",
"t t t t t t t t t t t t t t t t t t t #.[ ..M 1 @ >Xm.I /.I P y.G s s s q.h.u.B._.6XhXt t t t t t t t t t t t t t t t t t t t t ",
"t t t t t t t t t t t t t t t t t t t B ,.-.K l < dXcXjXcXVX!.A V.xXk.9.7.9.a.l._.6XMXt t t t t t t t t t t t t t t t t t t t t ",
"t t t t t t t t t t t t t t t t t t t ,.,.b.-.M 2 J.sXm.I  XL h V.nXMXCXVXaXs.s.1X9XnXt t t t t t t t t t t t t t t t t t t t t ",
"t t t t t t t t t t t t t t t t t t u V D.,.b.} 7 x.sXy.y.d. Xh j L.oX0XmXmXMXgX-X3XMXt t t t t t t t t t t t t t t t t t t t t ",
"t t t t t t t t t t t t t t t t t t t &.=.4.D.>.z X.lXBX).I uXyX!.|.OXY -XhXmX3X=XmXMXt t t t t t t t t t t t t t t t t t t t t ",
"t t t t t t t t t t t t t t t t t t t D.I.E.].D.[ }.C.m.n.h L y.C r y.j m Y.6X3X7XgXMXt t t t t t t t t t t t t t t t t t t t t ",
"t t t t t t t t t t t t t t t t t t t Y.}.T.-X}.D.Y.lXBXyXjXu.A h Z L H H D.].6X8XgX^.t t t t t t t t t t t t t t t t t t t t t ",
"t t t t t t t t t t t t t t t t t t t P.Y.{.oX{.-.xXCX!.u.P u.L h $ & P x ;.b.[.5XcXt t t t t t t t t t t t t t t t t t t t t t ",
"t t t t t t t t t t t t t t t t t t t t b.R.}.-.{.VXm.n.yXP yXsX!.h & A x ..V.oX{.xXt t t t t t t t t t t t t t t t t t t t t t ",
"t t t t t t t t t t t t t t t t t t t t t x [ c.sXkX!.jXjXP A M.|.L A M.Y K '.xXxXxXt t t t t t t t t t t t t t t t t t t t t t ",
"t t t t t t t t t t t t t t t t t t t t t t ;.gXyXxXlXuXOXn.h L tXW.a C L A  XVXVXs.t t t t t t t t t t t t t t t t t t t t t t ",
"t t t t t t t t t t t t t t t t t t t t t t i J.xXsXN.kXlXBXp.h tXlXW.C ~.A OXCXCX8.t t t t t t t t t t t t t t t t t t t t t t ",
"t t t t t t t t t t t t t t t t t t t t t t t m 0Xm./.cXI P h y.$ |.Z $ y.L  XVXCXt t t t t t t t t t t t t t t t t t t t t t t ",
"t t t t t t t t t t t t t t t t t t t t t t t 1 v *.[.>XOX|.o  X!.|.OXy.L d z.cXyXt t t t t t t t t t t t t t t t t t t t t t t ",
"t t t t t t t t t t t t t t t t t t t t t t t e 0 6 z ;.;.d.& p C.j y.d.Y z.C.MXt t t t t t t t t t t t t t t t t t t t t t t t ",
"t t t t t t t t t t t t t t t t t t t t t t i 0 0 0 6 0 @ f H J ..J...'.'.5XxXt t t t t t t t t t t t t t t t t t t t t t t t t ",
"t t t t t t t t t t t t t t t t t t t t t t V b 9 0 0 v * - J { ;.].T.E.-XgXt t t t t t t t t t t t t t t t t t t t t t t t t t ",
"t t t t t t t t t t t t t t t t t t t t t t [ ) ) ( { [ M : D.I.=X7XgXdXsXt t t t t t t t t t t t t t t t t t t t t t t t t t t ",
"t t t t t t t t t t t t t t t t t t t t t t t ,.Y.b.[.Y.b.x =X].3XqXMXhXy t t t t t t t t t t t t t t t t t t t t t t t t t t t "
};
