/* XPM */
static char *_a6a899c64a9401adea32cc4f831344d6OOIzaOu6IagiCXU[] = {
/* columns rows colors chars-per-pixel */
"64 64 236 2 ",
"   c #241C1E",
".  c #38261C",
"X  c #261C35",
"o  c #1A343C",
"O  c #3B2924",
"+  c #352A37",
"@  c #492804",
"#  c #50280A",
"$  c #5C350E",
"%  c #573908",
"&  c #5B380C",
"*  c #432919",
"=  c #4E3312",
"-  c #553610",
";  c #573917",
":  c #643907",
">  c #623B14",
",  c #442925",
"<  c #473421",
"1  c #2B530F",
"2  c #0B7A04",
"3  c #107D01",
"4  c #1B7D03",
"5  c #1A7609",
"6  c #2C6E01",
"7  c #286808",
"8  c #326C08",
"9  c #247305",
"0  c #2B7303",
"q  c #297907",
"w  c #2B7C0B",
"e  c #317403",
"r  c #357D03",
"t  c #387609",
"y  c #2B6515",
"u  c #386C13",
"i  c #297914",
"p  c #357B14",
"a  c #367619",
"s  c #2E5333",
"d  c #226422",
"f  c #356826",
"g  c #397528",
"h  c #5D410C",
"j  c #6A440B",
"k  c #72480E",
"l  c #6D4514",
"z  c #6B4318",
"x  c #754B14",
"c  c #7B4E13",
"v  c #784718",
"b  c #744B1A",
"n  c #665416",
"m  c #7D5215",
"M  c #775718",
"N  c #7D531B",
"B  c #566411",
"V  c #497E16",
"C  c #6D7214",
"Z  c #765021",
"A  c #457033",
"S  c #757021",
"D  c #19185B",
"F  c #192659",
"G  c #1F3A51",
"H  c #282247",
"J  c #302E4D",
"K  c #253A46",
"L  c #24275C",
"P  c #161D65",
"I  c #1A1E65",
"U  c #141B6B",
"Y  c #191F6A",
"T  c #1B2465",
"R  c #1D2867",
"E  c #1B2369",
"W  c #252867",
"Q  c #252C6C",
"!  c #233363",
"~  c #273569",
"^  c #33376D",
"/  c #2A3472",
"(  c #373C72",
")  c #294A47",
"_  c #31544D",
"`  c #374F59",
"'  c #2D6543",
"]  c #354D64",
"[  c #3B4A69",
"{  c #3B5364",
"}  c #3F5268",
"|  c #3E5477",
" . c #4A724D",
".. c #527A4F",
"X. c #446658",
"o. c #495D6F",
"O. c #486268",
"+. c #567665",
"@. c #617C66",
"#. c #8E4D1D",
"$. c #885716",
"%. c #81551B",
"&. c #835B1C",
"*. c #8B5D1D",
"=. c #8C621D",
"-. c #92661F",
";. c #855723",
":. c #895E21",
">. c #8D6325",
",. c #8D6827",
"<. c #936625",
"1. c #986C25",
"2. c #926629",
"3. c #956B2B",
"4. c #996C2A",
"5. c #8B732D",
"6. c #9E722E",
"7. c #9E7232",
"8. c #9D723F",
"9. c #A36F31",
"0. c #098701",
"q. c #1B8D01",
"w. c #178708",
"e. c #1E9508",
"r. c #238C03",
"t. c #2A8806",
"y. c #338305",
"u. c #388306",
"i. c #338C03",
"p. c #3C8B03",
"a. c #328C0C",
"s. c #398B0D",
"d. c #259403",
"f. c #2C9503",
"g. c #2B9408",
"h. c #359403",
"j. c #3B9203",
"k. c #3C9B03",
"l. c #34960B",
"z. c #3A930A",
"x. c #329C08",
"c. c #3A9D09",
"v. c #268A13",
"b. c #388817",
"n. c #3C9815",
"m. c #3DA507",
"M. c #3AA611",
"N. c #3F8B26",
"B. c #3D9226",
"V. c #428D04",
"C. c #438809",
"Z. c #518E0A",
"A. c #449402",
"S. c #4A9502",
"D. c #439A02",
"F. c #4A9B02",
"G. c #43940B",
"H. c #449B0B",
"J. c #4C9B0B",
"K. c #589E0A",
"L. c #458A17",
"P. c #528719",
"I. c #449C12",
"U. c #43941C",
"Y. c #499B1C",
"T. c #5B9B18",
"R. c #678518",
"E. c #729015",
"W. c #769C15",
"Q. c #44A303",
"!. c #4BA304",
"~. c #47A906",
"^. c #4DAC03",
"/. c #46A30A",
"(. c #4DAA0A",
"). c #52A403",
"_. c #55AC03",
"`. c #5DAD03",
"'. c #53A50C",
"]. c #52AA0B",
"[. c #5BA90A",
"{. c #57B507",
"}. c #5BB304",
"|. c #5CB20C",
" X c #4CA313",
".X c #4BA917",
"XX c #4EA41B",
"oX c #53A513",
"OX c #54AD13",
"+X c #59A618",
"@X c #53AA1C",
"#X c #5BB514",
"$X c #64A90E",
"%X c #64B905",
"&X c #60B50B",
"*X c #64B708",
"=X c #61BC0C",
"-X c #65A71B",
";X c #68B815",
":X c #74B010",
">X c #418B24",
",X c #438F2F",
"<X c #429421",
"1X c #479628",
"2X c #4D9C2C",
"3X c #529B26",
"4X c #4A8834",
"5X c #4D9A37",
"6X c #539835",
"7X c #6D942B",
"8X c #739834",
"9X c #4DAF28",
"0X c #51A622",
"qX c #54AE23",
"wX c #58AE25",
"eX c #55A82B",
"rX c #54A33C",
"tX c #5CA938",
"yX c #6CA627",
"uX c #67BA26",
"iX c #61AD3B",
"pX c #5AC40A",
"aX c #558A47",
"sX c #638C4F",
"dX c #639A4F",
"fX c #5CA545",
"gX c #64A749",
"hX c #67B24C",
"jX c #71A85A",
"kX c #85B45F",
"lX c #435180",
"zX c #557381",
"xX c #6C8092",
"cX c #B2D1AB",
"vX c #C8F3BB",
"bX c #CCDFCF",
/* pixels */
"U U U U U U U U U U U U U U U U U U U U U U U U U U U U U U U U U U U { 3X6XE U U U U U U U U U U U U U U U U U U U U U U U U U ",
"U U U U U U U U U U U U U U U U U U U U U U U U U U U U U U U U U U f q w wXqXtXU U U U U U U U U U U U U U U U U U U U U U U U ",
"U U U U U U U U U U U U U U U U U U U U U U U U U U U U U U f 7 9 p s.U.I.9 n..X2X{ U U U U U U U U U U U U U U U U U U U U U U ",
"U U U U U U U U U U U U U U U U U U U U U U U U U U U U X.B.r 9 9 w y.<X0XgXsXh.p.h.E U p 0 O.U U U U U U U U U U U U U U U U U ",
"U U U U U U U U U U U U U U U U U U U U U U U U U U U aX6Xp gXgXtXtXtXiXU.qX0X7 H.p.0 p.u.7 8 U U U U U U U U U U U U U U U U U ",
"U U U U U U U U U U U U U U U U U U U U U U U U U U gXrXgXfXrXrX2X2X2XY.0XeXY.@Xi.H.y.H.Y.C.p.U / ( E U U U U U U U U U U U U U ",
"U U U U U U U U U U U U U U U U U U U U U U U U U jX4XgXrX,Xb.bXy y s g 8 s.I.wXwXH.j.@XH.oXG.r V.].'.S.K.U U U U U U U U U U U ",
"U U U U U U U U U U U U U U U U U U U U U U U U +.fXrX,Xd Q U U E a <XXXeXXX0XXXH.@Xj.@XoXp.u.V.F.F.G.D.|.=X! U U U U U U U U U ",
"U U U U U U U U U U U U U U U U U U U U U U U E hXaXR U U U U s q w s.U.eXn.a.i.i.k.I.G. XG.A.p.r L.cXa p.0 L.U U U U U U U U U ",
"U U U U U U U U U U U U U U U U U U U U U U U sXU U U U U U u 9 9 q U.Y.B.l.j.a.u t 8 0 A.!.!.A.).%X|.OXF.V.V.U U U U U U U U U ",
"U U U U U U U U U U U U U U U U U U U U U U U U U U U U U g i q w <XU.s.p a ~ U P.i.y.0 9 p.].D.J.|.}.A.F.V.e U U U U U U U U U ",
"U U U U U U U U U U U U U U U U U U U U U U U U U U U U R N.b.>X1Xb.a.p P U U P XXI.z.z.jXp.V.^.'.e !._.&Xr t t U U U U U U U U ",
"U U U U U U U U U U U U U U U U U U U U U U U U U U U U 5X1Xb.B.s.y.) U U U U T.qX@X@XOXO.K p.j.}. XP F._.}.6 8 u U U U U U U U ",
"U U U U U U U U U U U U U U U U U U U U U U U U U U U U 5Xi >Xb.p U U U U U ~ @XwXs..XwXU U y.F.p.F.G.F A._.|.e t R U U U U U U ",
"U U U U U U U U U U U U U U U U U U U U U U U U U U U ..fX,XvXa U U U U U U >  X.XXX.X'.U U s L.J.p.V.X.o S._.&XV.V U U U U U U ",
"U U U U U U U U U U U U U U U U U U U U U U U U U U U gX2XB._ U U U U U U I M l.H. X XU U U I h.D.p.r r U U ].}.p.3XU U U U U U ",
"U U U U U U U U U U U U U U U U U U U U U U U U U U U gX5Xf U U U U U U U - %.u.e  X~ U U U U y.A.J.6 8 U U p.`.;X'.U U U U U U ",
"U U U U U U U U U U U U U U U U U U U U U U U U U U ( 5X4XU U U U U U U W x C t H.U.U U U U U y V.F.7 6 } U K F.*X|.U U U U U U ",
"U U U U U U U U U U U U U U U U U U U U U U U U U U +.tXU U U U U U U U $ #.t.w I.U U U U U U K p.S.6 e ` U U C.`.}.Q U U U U U ",
"U U U U U U U U U U U U U U U U U U U U U U U U U U gX~ U U U U U U U I v &.i.z.U.U U U U U U R C.S.r u.L U U L `.=XU U U U U U ",
"U U U U U U U U U U U U U U U U U U U U U U U U U U 4XU U U U U U U U O ;.5.Q.U.U U U U U U U U p.S.C.D.P U U U Q.OXU U U U U U ",
"U U U U U U U U U U U U U U U U U U U U U U U U U ! / U U U U U U U P $ M 7X>X6XU U U U U U U U f V.).J.U U U U s '.U U U U U U ",
"U U U U U U U U U U U U U U U U U U U U U U U ] _.n.d.E _ ~ U U U U + c >.7X9XU U U U U U U U U V A.'.L.U U U U U ).U U U U U U ",
"U U U U U U U U U U U U U U U U U U U U U U ' Q.b./.l.q.2 w.g.] U U ; %.9.9XA U U U U U U U U U j.J.OXE U U U U U @.U U U U U U ",
"U U U U U U U U U U U U U U U U U U U 2 0.! d.l.@X!.%X`.`.`.&X/.*XL z k 2.8XU U U U U U U U U U D.V._.U U U U U U U U U U U U U ",
"U U U U U U U U U U U U U U U U U U U w.t.r.r.{.{.Q.hXw.5 +.g.!.{.;Xm >.*.& U U U U U U U U U U !.}.T U U U U U U U U U U U U U ",
"U U U U U U U U U U U U U U U  .].M.e.r.OXh.k.F.].!.!.f.i U U U R C.-X9.>.; U U U U U U U U U Y ^.7XU U U U U U U U U U U U U U ",
"U U U U U U U U U U U U U U K._.g.g.h.c.c.c.k.k.m.Q.m.r.2 0.) U U & j ,.&.H U U U U U U U U U F A.U U U U U U U U U U U U U U U ",
"U U U U U U U U U U U U U U 0._.`.{.D.(./.0.e.f E d v.h.c.r.q.] I k &.>.: U U U U U U U U U U A R U U U U U U U U U U U U U U U ",
"U U U U U U U U U U U U U U t.x.}.). X/.g h.h.~.F U U ) r.x.r.H.X m 1.3.b U U U U U U U U U U ` U U U U U U U U U U U U U U U U ",
"U U U U U U U U U U U U U 2 3 [.c.tXOXf.U #X].{.[.U U U U q eXg.R.j 4.>.z U U U U U U U U U U U U U U U U U U U U U U U U U U U ",
"U U U U U U U U U U U U ! w.}.H.U z.Q.v.U { (.k.H., U U U U G D.&X;.<.x * U U U U U U U U U U U U U U U U U U U U U U U U U U U ",
"U U U U U U U U U U U U g ~.OX' w.q.c.y U U ` M.v.h U U U U U ! oX*.6.&.+ U U U U U U U U U U U U U U U U U U U U U U U U U U U ",
"U U U U U U U U U U U U oX{.l.U w.3 h.s U U U J.q.S # U U U U   1 W.1.N E U U U U U U U U U U U U U U U U U U U U U U U U U U U ",
"U U U U U U U U U U U U |.$XX.U 0.4 h.zXU U U U G.a.n ( U U U @ k R.x > U U U U U U U U U U U U U U U U U U U U U U U U U U U U ",
"U U U U U U U U U U U U -X~.U U a.t.d.xXU U U U ` ~.,.- U U U > %.4.>.j U U U U U U U U U U U U U U U U U U U U U U U U U U U U ",
"U U U U U U U U U U U U  .L.U U X./.n.lXU U U U U +XE.m ^ U U $ %.6.2.l U U U U U U U U U U U U U U U U U U U U U U U U U U U U ",
"U U U U U U U U U U U U U { U U U ^.n.| U U U U U E E.m & U D - : 3.:.; U U U U U U U U U U U U U U U U U U U U U U U U U U U U ",
"U U U U U U U U U U U U U U U U U ..!. .U U U U U U > 7.c Y H l N 2.x @ U U U U U U U U U U U U U U U U U U U U U U U U U U U U ",
"U U U U U U U U U U U U U U U U U U ;XP.U U U U U U J >.l . X c >.6.&.- U U U U U U U U U U U U U U U U U U U U U U U U U U U U ",
"U U U U U U U U U U U U U U U U U U U OXU U U U U U U x :.h + b >.4.%.* U U U U U U U U U U U U U U U U U U U U U U U U U U U U ",
"U U U U U U U U U U U U U U U U U U U E U U U U U U U j 7.: @ $ : %.l L U U U U U U U U U U U U U U U U U U U U U U U U U U U U ",
"U U U U U U U U U U U U U U U U U U U U U U U U U U U . <.%.@ x >.:.l + U U U U U U U U U U U U U U U U U U U U U U U U U U U U ",
"U U U U U U U U U U U U U U U U U U U U U U U U U U U W >.*.@ N 4.4.m L U U U U U U U U U U U U U U U U U U U U U U U U U U U U ",
"U U U U U U U U U U U U U U U U U U U U U U U U U U U U : 2.l b 4.<.N Q U U U U U U U U U U U U U U U U U U U U U U U U U U U U ",
"U U U U U U U U U U U U U U U U U U U U U U U U U U U U b 7.b & :.%.l U U U U U U U U U U U U U U U U U U U U U U U U U U U U U ",
"U U U U U U U U U U U U U U U U U U U U U U U U U U U U < N k # 6.<.c ^ U U U U U U U U U U U U U U U U U U U U U U U U U U U U ",
"U U U U U U U U U U U U U U U U U U U U U U U U U U U U O >.=.> 7.4.N I U U U U U U U U U U U U U U U U U U U U U U U U U U U U ",
"U U U U U U U U U U U U U U U U U U U U U U U U U U U U P &.>.# 8.=.x U U U U U U U U U U U U U U U U U U U U U U U U U U U U U ",
"U U U U U U U U U U U U U U U U U U U U U U U U U U U U U k 3.l ;.m : U U U U U U U U U U U U U U U U U U U U U U U U U U U U U ",
"U U U U U U U U U U U U U U U U U U U U U U U U U U U U U ;.6.b Z <.N J U U U U U U U U U U U U U U U U U U U U U U U U U U U U ",
"U U U U U U U U U U U U U U U U U U U U U U U U U U U U U : :.x @ 1.N H U U U U U U U U U U U U U U U U U U U U U U U U U U U U ",
"U U U U U U U U U U U U U U U U U U U U U U U U U U U U U l 6.N & -.N J U U U U U U U U U U U U U U U U U U U U U U U U U U U U ",
"U U U U U U U U U U U U U U U U U U U U U U U U U U U U U ; >.m @ N l I U U U U U U U U U U U U U U U U U U U U U U U U U U U U ",
"U U U U U U U U U U U U U U U U U U U U U U U U U U U U U < :.N > ,.Z = U U U U U U U U U U U U U U U U U U U U U U U U U U U U ",
"U U U U U U U U U U U U U U U U U U U U U U U U U U U U U ; 3.=.z 7.&.% U U U U U U U U U U U U U U U U U U U U U U U U U U U U ",
"U U U U U U U U U U U U U U U U U U U U U U U U U U U U U + $.M % 5.*.% U U U U U U U U U U U U U U U U U U U U U U U U U U U U ",
"U U U U U U U U U U U U U U U U U U U U U U U U U U U Q U * W.;.E.W.b $XU U U U U U U U U U U U U U U U U U U U U U U U U U U U ",
"U U U U U U U U U U U U U U U U U U U U U U U U T U U U dX- =.-X`.$XJ.% Y T.U U U R U U U U U U U U U U U U U U U U U U U U U U ",
"U U U U U U U U U U U U U U U U U U U U U U U U U ).} U yXB M :X}.pX;Xv -X[ U A uXU U U U U U U U U U U U U U U U U U U U U U U ",
"U U U U U U U U U U U U U U U U U U U U U U U U U U %X1XR D.S [.!.;X[.C =XU '.yXU U U U U U U U U U U U U U U U U U U U U U U U ",
"U U U U U U U U U U U U U U U U U U U U U U o.;X!.oXkX#XaX`.Z.`.}._.Q.D.-Xa.=X_ '.{.dXU U U U U U U U U U U U U U U U U U U U U ",
"U U U U U U U U U U U U U U U U U U U U U U U U R :Xr.uXe.].m.f.]._.g.^.4 ^.2 ].8XU U U U U U U U U U U U U U U U U U U U U U U ",
"U U U U U U U U U U U U U U U U U U U U U U U U / yX~.d.;Xf.Q.l.].;Xg.#Xk.4 @X).+.U U U U U U U U U U U U U U U U U U U U U U U "
};
